<svg width="96" height="46" viewBox="0 0 96 46" fill="none" xmlns="http://www.w3.org/2000/svg">
<path d="M0.810059 27.1954H3.64298V41.0861H0.810059V27.1954Z" fill="#486A6F"/>
<path d="M5.28606 36.3268C5.28419 35.3291 5.57834 34.3532 6.13129 33.5227C6.68424 32.6922 7.47113 32.0444 8.39239 31.6613C9.31359 31.2782 10.3278 31.177 11.3066 31.3705C12.2854 31.564 13.1848 32.0435 13.8909 32.7484C14.5971 33.4532 15.0783 34.3517 15.2736 35.3301C15.469 36.3085 15.3697 37.3229 14.9883 38.2449C14.6069 39.1668 13.9606 39.9549 13.1311 40.5094C12.3017 41.064 11.3264 41.3599 10.3287 41.3599C9.66509 41.3675 9.00679 41.2426 8.39219 40.9924C7.77761 40.7423 7.21912 40.372 6.74948 39.9032C6.27984 39.4345 5.90849 38.8767 5.6572 38.2625C5.40591 37.6484 5.27973 36.9903 5.28606 36.3268ZM12.5194 36.3268C12.5083 35.8961 12.3704 35.4782 12.123 35.1255C11.8756 34.7727 11.5297 34.5008 11.1285 34.3436C10.7273 34.1864 10.2887 34.1511 9.86759 34.2419C9.44639 34.3327 9.06139 34.5457 8.76059 34.8542C8.45989 35.1627 8.25679 35.5531 8.17673 35.9765C8.09668 36.3998 8.14326 36.8374 8.31059 37.2344C8.47799 37.6314 8.75869 37.9703 9.11759 38.2086C9.47659 38.4469 9.89779 38.5741 10.3287 38.5742C10.6234 38.5825 10.9167 38.5296 11.19 38.4188C11.4633 38.308 11.7107 38.1418 11.9166 37.9306C12.1224 37.7194 12.2823 37.4679 12.386 37.1919C12.4898 36.9158 12.5352 36.6213 12.5194 36.3268Z" fill="#486A6F"/>
<path d="M26.7595 31.5675V40.6139C26.7595 43.8151 24.2571 45.1655 21.7264 45.1655C20.8365 45.2317 19.9455 45.0517 19.151 44.6453C18.3565 44.2389 17.6892 43.6217 17.2221 42.8614L19.6584 41.4544C19.8517 41.844 20.1576 42.1667 20.5364 42.3805C20.9152 42.5943 21.3495 42.6895 21.7831 42.6536C22.0683 42.7012 22.3607 42.6826 22.6377 42.5992C22.9147 42.5159 23.1688 42.3701 23.3805 42.173C23.5921 41.9759 23.7557 41.7328 23.8586 41.4625C23.9615 41.1922 24.0009 40.9019 23.9738 40.6139V39.7357C23.6408 40.1455 23.2158 40.471 22.7335 40.6859C22.2512 40.9008 21.725 40.9991 21.1976 40.9728C19.9153 40.9728 18.6856 40.4634 17.7788 39.5567C16.8721 38.65 16.3627 37.4202 16.3627 36.1379C16.3627 34.8556 16.8721 33.6259 17.7788 32.7192C18.6856 31.8125 19.9153 31.3031 21.1976 31.3031C21.7247 31.279 22.2501 31.3783 22.7321 31.593C23.2141 31.8078 23.6393 32.1321 23.9738 32.5401V31.5958L26.7595 31.5675ZM23.9738 36.1379C23.9927 35.6787 23.8737 35.2243 23.6323 34.8331C23.3908 34.442 23.0379 34.132 22.6189 33.9431C22.1999 33.7541 21.7339 33.6948 21.2809 33.7728C20.8279 33.8507 20.4086 34.0624 20.0769 34.3805C19.7451 34.6987 19.5161 35.1088 19.4193 35.5581C19.3224 36.0074 19.3622 36.4755 19.5335 36.902C19.7048 37.3286 19.9997 37.6941 20.3804 37.9517C20.7611 38.2094 21.2101 38.3472 21.6697 38.3476C21.9698 38.3688 22.2709 38.327 22.5537 38.2247C22.8366 38.1224 23.0949 37.9621 23.312 37.7539C23.529 37.5457 23.7001 37.2943 23.8141 37.016C23.9281 36.7377 23.9825 36.4386 23.9738 36.1379Z" fill="#486A6F"/>
<path d="M28.3932 36.3268C28.3913 35.3291 28.6855 34.3532 29.2384 33.5227C29.7914 32.6922 30.5783 32.0444 31.4995 31.6613C32.4207 31.2782 33.4349 31.177 34.4137 31.3705C35.3925 31.564 36.2919 32.0435 36.9981 32.7484C37.7042 33.4532 38.1854 34.3517 38.3808 35.3301C38.5761 36.3085 38.4768 37.3229 38.0954 38.2449C37.714 39.1668 37.0677 39.9549 36.2383 40.5094C35.4088 41.064 34.4335 41.3599 33.4358 41.3599C32.7723 41.3675 32.1139 41.2426 31.4993 40.9924C30.8847 40.7423 30.3262 40.372 29.8566 39.9032C29.387 39.4345 29.0156 38.8767 28.7643 38.2625C28.513 37.6484 28.3868 36.9903 28.3932 36.3268ZM35.6266 36.3268C35.6154 35.8961 35.4775 35.4782 35.2301 35.1255C34.9827 34.7727 34.6368 34.5008 34.2356 34.3436C33.8345 34.1864 33.3959 34.1511 32.9747 34.2419C32.5535 34.3327 32.1685 34.5457 31.8677 34.8542C31.567 35.1627 31.3639 35.5531 31.2838 35.9765C31.2038 36.3998 31.2504 36.8374 31.4177 37.2344C31.5851 37.6314 31.8658 37.9703 32.2247 38.2086C32.5837 38.4469 33.0049 38.5741 33.4358 38.5742C33.729 38.5798 34.0202 38.525 34.2913 38.413C34.5623 38.301 34.8074 38.1344 35.0112 37.9235C35.215 37.7127 35.3731 37.462 35.4758 37.1873C35.5784 36.9126 35.6233 36.6196 35.6077 36.3268H35.6266Z" fill="#486A6F"/>
<path d="M39.791 29.0179C39.791 28.678 39.8918 28.3457 40.0806 28.0631C40.2695 27.7805 40.5379 27.5602 40.8519 27.4301C41.166 27.3 41.5115 27.266 41.8449 27.3323C42.1783 27.3986 42.4845 27.5623 42.7249 27.8026C42.9653 28.043 43.1289 28.3492 43.1952 28.6826C43.2616 29.016 43.2275 29.3616 43.0975 29.6756C42.9674 29.9896 42.7471 30.2581 42.4645 30.4469C42.1818 30.6357 41.8496 30.7365 41.5096 30.7365C41.0546 30.7341 40.6189 30.5522 40.2971 30.2304C39.9753 29.9087 39.7935 29.473 39.791 29.0179ZM40.0837 31.5675H42.9166V41.0861H40.0837V31.5675Z" fill="#486A6F"/>
<path d="M55.268 36.3268C55.3023 36.956 55.2119 37.5858 55.0019 38.1799C54.7918 38.774 54.4664 39.3207 54.0442 39.7885C53.622 40.2563 53.1115 40.636 52.542 40.9057C51.9725 41.1754 51.3553 41.3298 50.7259 41.36C50.1975 41.3853 49.6699 41.2945 49.1805 41.0938C48.691 40.8931 48.2515 40.5875 47.893 40.1985V44.92H45.0601V31.5675H47.893V32.4646C48.2515 32.0756 48.691 31.77 49.1805 31.5693C49.6699 31.3686 50.1975 31.2778 50.7259 31.3031C51.3545 31.3333 51.9709 31.4874 52.5397 31.7565C53.1086 32.0257 53.6187 32.4045 54.0407 32.8713C54.4628 33.3381 54.7884 33.8836 54.999 34.4766C55.2097 35.0696 55.3011 35.6984 55.268 36.3268ZM52.4351 36.3268C52.4239 35.8836 52.2829 35.4534 52.0296 35.0895C51.7763 34.7257 51.4219 34.444 51.0102 34.2796C50.5985 34.1151 50.1475 34.075 49.7133 34.1643C49.279 34.2535 48.8804 34.4682 48.5669 34.7817C48.2534 35.0952 48.0388 35.4937 47.9495 35.928C47.8603 36.3623 47.9004 36.8132 48.0648 37.2249C48.2293 37.6366 48.5109 37.9911 48.8748 38.2443C49.2387 38.4976 49.6689 38.6386 50.1121 38.6498C50.4214 38.6695 50.7313 38.6227 51.0211 38.5127C51.3108 38.4026 51.5736 38.2318 51.7919 38.0118C52.0101 37.7917 52.1788 37.5275 52.2865 37.2369C52.3941 36.9463 52.4384 36.636 52.4162 36.3268H52.4351Z" fill="#486A6F"/>
<path d="M64.0879 38.2343C64.0879 40.4251 62.1993 41.3599 60.1218 41.3599C59.2919 41.4334 58.459 41.2568 57.7303 40.8529C57.0017 40.449 56.4105 39.8363 56.033 39.0936L58.5071 37.6866C58.6075 38.0301 58.8225 38.3289 59.1162 38.5333C59.41 38.7377 59.7648 38.8355 60.1218 38.8103C60.8112 38.8103 61.1511 38.5931 61.1511 38.2154C61.1511 37.1672 56.4296 37.7244 56.4296 34.4382C56.4296 32.3607 58.186 31.3125 60.2068 31.3125C60.9525 31.2899 61.6907 31.467 62.3449 31.8257C62.9991 32.1843 63.5454 32.7114 63.9274 33.3522L61.4439 34.6554C61.3342 34.406 61.1544 34.1938 60.9264 34.0446C60.6984 33.8954 60.4321 33.8156 60.1596 33.8149C59.6686 33.8149 59.3664 34.0038 59.3664 34.3532C59.4042 35.4391 64.0879 34.712 64.0879 38.2343Z" fill="#486A6F"/>
<path d="M74.513 31.5675V41.0861H71.68V40.1985C71.3505 40.5929 70.9323 40.9037 70.4596 41.1056C69.987 41.3075 69.4732 41.3946 68.9604 41.36C67.0718 41.36 65.4004 39.9907 65.4004 37.4128V31.5675H68.2333V36.9973C68.2084 37.2287 68.2354 37.4627 68.3122 37.6824C68.389 37.9021 68.5137 38.1019 68.6774 38.2674C68.841 38.4329 69.0395 38.5598 69.2583 38.639C69.4771 38.7183 69.7109 38.7477 69.9425 38.7254C70.9813 38.7254 71.7084 38.121 71.7084 36.7707V31.5675H74.513Z" fill="#486A6F"/>
<path d="M90.8872 35.2502V41.086H88.0542V35.4958C88.0542 34.5515 87.5915 33.9282 86.685 33.9282C85.7785 33.9282 85.193 34.5987 85.193 35.7224V41.086H82.3601V35.4958C82.3601 34.5515 81.9068 33.9282 80.9908 33.9282C80.0749 33.9282 79.5083 34.5987 79.5083 35.7224V41.086H76.6754V31.5675H79.5083V32.4457C79.8044 32.0578 80.1927 31.7501 80.638 31.5506C81.0833 31.351 81.5714 31.2659 82.0579 31.3031C82.5465 31.2793 83.033 31.3826 83.4698 31.6026C83.9067 31.8227 84.2791 32.1522 84.5509 32.559C84.8669 32.1337 85.2856 31.7954 85.7678 31.5758C86.25 31.3562 86.78 31.2623 87.3082 31.3031C89.4613 31.3031 90.8872 32.8706 90.8872 35.2502Z" fill="#486A6F"/>
<path d="M93.3047 31.5109C94.4729 31.5109 95.4199 30.5638 95.4199 29.3956C95.4199 28.2274 94.4729 27.2804 93.3047 27.2804C92.1365 27.2804 91.1894 28.2274 91.1894 29.3956C91.1894 30.5638 92.1365 31.5109 93.3047 31.5109Z" fill="#486A6F"/>
<path d="M32.8692 19.9904C38.34 19.9904 42.7749 15.5554 42.7749 10.0846C42.7749 4.61379 38.34 0.178833 32.8692 0.178833C27.3984 0.178833 22.9634 4.61379 22.9634 10.0846C22.9634 15.5554 27.3984 19.9904 32.8692 19.9904Z" fill="#486A6F"/>
<path d="M55.0131 19.9904C60.4839 19.9904 64.9188 15.5554 64.9188 10.0846C64.9188 4.61379 60.4839 0.178833 55.0131 0.178833C49.5423 0.178833 45.1073 4.61379 45.1073 10.0846C45.1073 15.5554 49.5423 19.9904 55.0131 19.9904Z" fill="#486A6F"/>
<path d="M20.631 0.178833H0.828948V19.9809H20.631V0.178833Z" fill="#486A6F"/>
</svg>
