<svg width="61" height="41" viewBox="0 0 61 41" fill="none" xmlns="http://www.w3.org/2000/svg">
<path d="M56.8942 1.92883C56.8942 2.61919 57.4538 3.17883 58.1442 3.17883H59.3942C60.0846 3.17883 60.6442 2.61919 60.6442 1.92883C60.6442 1.23848 60.0846 0.678837 59.3942 0.678837H58.1442C57.4538 0.678837 56.8942 1.23848 56.8942 1.92883Z" fill="#486A6F"/>
<path d="M20.6442 40.6788H26.7165L24.9487 38.911C24.4799 38.4422 23.844 38.1788 23.181 38.1788H20.6442C10.9792 38.1788 3.1442 30.3438 3.1442 20.6788C3.1442 11.0138 10.9792 3.17884 20.6442 3.17883H40.6442C50.3092 3.17883 58.1442 11.0138 58.1442 20.6788C58.1442 30.3438 50.3092 38.1788 40.6442 38.1788H33.1626C32.168 38.1788 31.2142 37.7837 30.5109 37.0805L28.4399 35.0094C27.2678 33.8373 25.678 33.1788 24.0204 33.1788H20.6442C13.7406 33.1788 8.1442 27.5824 8.1442 20.6788C8.1442 13.7752 13.7406 8.17883 20.6442 8.17883H40.6442C47.5478 8.17883 53.1442 13.7752 53.1442 20.6788C53.1442 27.5824 47.5478 33.1788 40.6442 33.1788H35.8403C34.8457 33.1788 33.8919 32.7837 33.1886 32.0805L31.1175 30.0094C29.9454 28.8373 28.3557 28.1788 26.6981 28.1788H20.6442C16.5021 28.1788 13.1442 24.8209 13.1442 20.6788C13.1442 16.5367 16.5021 13.1788 20.6442 13.1788H40.6442C44.7863 13.1788 48.1442 16.5367 48.1442 20.6788C48.1442 24.7704 44.8677 28.0968 40.7954 28.1773L40.7946 28.1788H38.9653C37.9707 28.1788 37.0169 27.7837 36.3136 27.0805L34.2425 25.0094C33.2808 24.0476 32.0379 23.4317 30.707 23.2416L30.6442 23.1788H20.6442C19.2635 23.1788 18.1442 22.0595 18.1442 20.6788C18.1442 19.2981 19.2635 18.1788 20.6442 18.1788H40.6442C42.0249 18.1788 43.1442 19.2981 43.1442 20.6788C43.1442 22.0595 42.0249 23.1788 40.6442 23.1788H35.6442L37.412 24.9466C37.8808 25.4154 38.5167 25.6788 39.1797 25.6788H40.6442C43.4056 25.6788 45.6442 23.4402 45.6442 20.6788C45.6442 17.9174 43.4056 15.6788 40.6442 15.6788H20.6442C17.8828 15.6788 15.6442 17.9174 15.6442 20.6788C15.6442 23.4402 17.8828 25.6788 20.6442 25.6788H29.8231C30.8177 25.6788 31.7715 26.0739 32.4748 26.7771L34.5459 28.8482C35.718 30.0203 37.3077 30.6788 38.9653 30.6788H41.2692V30.6596C46.5009 30.337 50.6442 25.9917 50.6442 20.6788C50.6442 15.156 46.167 10.6788 40.6442 10.6788H20.6442C15.1214 10.6788 10.6442 15.156 10.6442 20.6788C10.6442 26.2017 15.1214 30.6788 20.6442 30.6788H26.6981C27.6927 30.6788 28.6465 31.0739 29.3498 31.7771L31.4209 33.8482C32.593 35.0203 34.1827 35.6788 35.8403 35.6788H40.6442C48.9285 35.6788 55.6442 28.9631 55.6442 20.6788C55.6442 12.3945 48.9285 5.67883 40.6442 5.67883H20.6442C12.3599 5.67883 5.6442 12.3945 5.6442 20.6788C5.6442 28.9631 12.3599 35.6788 20.6442 35.6788H24.0204C25.015 35.6788 25.9688 36.0739 26.6721 36.7771L28.7432 38.8482C29.9153 40.0203 31.505 40.6788 33.1626 40.6788H40.6442C51.6899 40.6788 60.6442 31.7245 60.6442 20.6788C60.6442 9.63313 51.6899 0.678832 40.6442 0.678833L20.6442 0.678837C9.5985 0.678838 0.644195 9.63314 0.644196 20.6788C0.644197 31.7245 9.59851 40.6788 20.6442 40.6788Z" fill="#486A6F"/>
</svg>
