<svg width="218" height="41" viewBox="0 0 218 41" fill="none" xmlns="http://www.w3.org/2000/svg">
<path d="M122.175 30.2026H126.838V12.614H122.175V30.2026ZM122.175 9.87121H126.838V5.68835H122.175V9.87121Z" fill="#486A6F"/>
<path d="M129.843 35.9626H134.506V28.214H134.574C135.568 29.7226 137.18 30.7169 139.648 30.7169C144.174 30.7169 147.26 27.1169 147.26 21.4255C147.26 15.9397 144.277 12.134 139.614 12.134C137.214 12.134 135.568 13.2655 134.437 14.8083H134.334V12.614H129.843V35.9626ZM138.654 26.8426C135.877 26.8426 134.403 24.7512 134.403 21.5626C134.403 18.4083 135.568 15.9055 138.483 15.9055C141.363 15.9055 142.528 18.2369 142.528 21.5626C142.528 24.8883 141.02 26.8426 138.654 26.8426Z" fill="#486A6F"/>
<path d="M156.561 30.7169C160.95 30.7169 163.967 28.5912 163.967 25.0597C163.967 20.9455 160.71 20.1226 157.761 19.5055C155.258 18.9912 152.927 18.854 152.927 17.3455C152.927 16.0769 154.127 15.3912 155.944 15.3912C157.933 15.3912 159.133 16.0769 159.338 17.9626H163.555C163.213 14.4312 160.641 12.134 156.013 12.134C152.001 12.134 148.847 13.9512 148.847 17.7569C148.847 21.5969 151.933 22.454 155.087 23.0712C157.487 23.5512 159.715 23.7226 159.715 25.4026C159.715 26.6369 158.55 27.4255 156.493 27.4255C154.401 27.4255 152.961 26.534 152.653 24.5112H148.333C148.607 28.2483 151.453 30.7169 156.561 30.7169Z" fill="#486A6F"/>
<path d="M181.67 30.2026V12.614H177.007V22.7626C177.007 25.094 175.67 26.7397 173.476 26.7397C171.487 26.7397 170.562 25.6083 170.562 23.5512V12.614H165.933V24.3397C165.933 28.1797 168.127 30.6826 172.036 30.6826C174.505 30.6826 175.876 29.7569 177.076 28.1455H177.179V30.2026H181.67Z" fill="#486A6F"/>
<path d="M184.686 30.2026H189.349V19.9855C189.349 17.654 190.618 16.1455 192.504 16.1455C194.218 16.1455 195.212 17.174 195.212 19.1626V30.2026H199.875V19.9855C199.875 17.654 201.075 16.1455 203.029 16.1455C204.744 16.1455 205.738 17.174 205.738 19.1626V30.2026H210.401V18.374C210.401 14.534 208.309 12.134 204.606 12.134C202.378 12.134 200.526 13.2997 199.326 15.2197H199.258C198.401 13.3683 196.618 12.134 194.389 12.134C191.955 12.134 190.241 13.3683 189.281 14.9797H189.178V12.614H184.686V30.2026Z" fill="#486A6F"/>
<path d="M0.644196 30.2026H5.30705V5.68835H0.644196V30.2026Z" fill="#486A6F"/>
<path d="M16.7084 30.7169C22.1598 30.7169 25.8969 26.6712 25.8969 21.4255C25.8969 16.1797 22.1598 12.134 16.7084 12.134C11.2569 12.134 7.51982 16.1797 7.51982 21.4255C7.51982 26.6712 11.2569 30.7169 16.7084 30.7169ZM16.7084 27.1512C13.8284 27.1512 12.2512 24.854 12.2512 21.4255C12.2512 17.9969 13.8284 15.6655 16.7084 15.6655C19.5541 15.6655 21.1655 17.9969 21.1655 21.4255C21.1655 24.854 19.5541 27.1512 16.7084 27.1512Z" fill="#486A6F"/>
<path d="M35.813 36.2026C38.4187 36.2026 40.6816 35.5855 42.1558 34.214C43.4587 33.014 44.2473 31.334 44.2473 28.8655V12.614H39.7559V14.4655H39.6873C38.6244 12.9912 37.013 12.134 34.8187 12.134C30.3616 12.134 27.2073 15.494 27.2073 20.7397C27.2073 26.054 31.0473 29.1397 34.9559 29.1397C37.1844 29.1397 38.5216 28.2483 39.5501 27.0826H39.653V29.0026C39.653 31.4026 38.3844 32.6712 35.7444 32.6712C33.5844 32.6712 32.5901 31.814 32.213 30.7169H27.5844C28.0644 34.1455 31.013 36.2026 35.813 36.2026ZM35.7444 25.4026C33.3444 25.4026 31.7673 23.654 31.7673 20.6712C31.7673 17.7226 33.3444 15.8712 35.7101 15.8712C38.5216 15.8712 39.893 18.0655 39.893 20.6369C39.893 23.2426 38.693 25.4026 35.7444 25.4026Z" fill="#486A6F"/>
<path d="M55.5811 30.7169C61.0325 30.7169 64.7697 26.6712 64.7697 21.4255C64.7697 16.1797 61.0325 12.134 55.5811 12.134C50.1297 12.134 46.3925 16.1797 46.3925 21.4255C46.3925 26.6712 50.1297 30.7169 55.5811 30.7169ZM55.5811 27.1512C52.7011 27.1512 51.124 24.854 51.124 21.4255C51.124 17.9969 52.7011 15.6655 55.5811 15.6655C58.4268 15.6655 60.0383 17.9969 60.0383 21.4255C60.0383 24.854 58.4268 27.1512 55.5811 27.1512Z" fill="#486A6F"/>
<path d="M212.095 9.72645C212.095 8.93747 212.735 8.29788 213.524 8.29788H216.381C217.17 8.29788 217.81 8.93747 217.81 9.72645C217.81 10.5154 217.17 11.155 216.381 11.155H213.524C212.735 11.155 212.095 10.5154 212.095 9.72645Z" fill="#486A6F"/>
<path fill-rule="evenodd" clip-rule="evenodd" d="M93.0477 0.678833C104.093 0.678833 113.048 9.63314 113.048 20.6788C113.048 31.7245 104.093 40.6788 93.0477 40.6788C82.002 40.6788 73.0477 31.7245 73.0477 20.6788C73.0477 9.63314 82.002 0.678833 93.0477 0.678833ZM92.3248 2.17542C90.0431 2.49652 87.8705 4.32991 86.184 7.39623C85.6948 8.28566 85.2534 9.26829 84.8688 10.3293C87.162 9.753 89.6811 9.41325 92.3248 9.3607V2.17542ZM83.1784 10.8096C83.6568 9.30841 84.2419 7.92723 84.9172 6.69948C85.7532 5.17942 86.7454 3.86678 87.8633 2.8586C81.7844 4.62406 76.9929 9.41562 75.2274 15.4945C76.2356 14.3766 77.5482 13.3844 79.0683 12.5484C80.2961 11.8731 81.6772 11.2879 83.1784 10.8096ZM82.6981 12.4999C82.1218 14.7931 81.7821 17.3122 81.7295 19.9559H74.5442C74.8653 17.6742 76.6987 15.5016 79.7651 13.8152C80.6545 13.326 81.6371 12.8846 82.6981 12.4999ZM83.1756 19.9559C83.2353 17.0708 83.6507 14.3622 84.3379 11.969C86.7311 11.2818 89.4397 10.8664 92.3248 10.8067V13.9296C91.2485 16.685 89.0533 18.88 86.2978 19.9559H83.1756ZM81.7295 21.4017H74.5442C74.8653 23.6834 76.6987 25.8559 79.7651 27.5424C80.6545 28.0316 81.6371 28.473 82.6981 28.8577C82.1218 26.5645 81.7821 24.0454 81.7295 21.4017ZM84.3379 29.3886C83.6507 26.9954 83.2353 24.2868 83.1756 21.4017H86.2978C89.0533 22.4776 91.2485 24.6726 92.3248 27.428V30.5509C89.4397 30.4912 86.7311 30.0758 84.3379 29.3886ZM83.1784 30.548C81.6772 30.0697 80.2961 29.4845 79.0683 28.8092C77.5482 27.9732 76.2356 26.981 75.2274 25.8631C76.9929 31.942 81.7844 36.7336 87.8633 38.499C86.7454 37.4908 85.7532 36.1782 84.9172 34.6581C84.2419 33.4304 83.6568 32.0492 83.1784 30.548ZM92.3248 39.1822C90.0431 38.8611 87.8705 37.0277 86.184 33.9614C85.6948 33.072 85.2534 32.0893 84.8688 31.0284C87.162 31.6046 89.6811 31.9444 92.3248 31.9969V39.1822ZM98.232 38.499C99.3499 37.4908 100.342 36.1782 101.178 34.6581C101.853 33.4304 102.439 32.0492 102.917 30.548C104.418 30.0697 105.799 29.4845 107.027 28.8092C108.547 27.9732 109.86 26.981 110.868 25.8631C109.102 31.942 104.311 36.7336 98.232 38.499ZM101.227 31.0284C100.842 32.0893 100.4 33.072 99.911 33.9614C98.2248 37.0277 96.0522 38.8611 93.7705 39.1822V31.9969C96.4142 31.9444 98.9333 31.6046 101.227 31.0284ZM103.397 28.8577C104.458 28.473 105.441 28.0316 106.33 27.5424C109.397 25.856 111.23 23.6834 111.551 21.4017H104.366C104.313 24.0454 103.973 26.5645 103.397 28.8577ZM102.92 21.4017C102.86 24.2868 102.445 26.9954 101.757 29.3886C99.3642 30.0758 96.6556 30.4912 93.7705 30.5509V27.4303C94.8465 24.6739 97.0422 22.4779 99.7984 21.4017H102.92ZM104.366 19.9559H111.551C111.23 17.6742 109.397 15.5016 106.33 13.8152C105.441 13.326 104.458 12.8846 103.397 12.4999C103.973 14.7931 104.313 17.3122 104.366 19.9559ZM101.757 11.969C102.445 14.3622 102.86 17.0708 102.92 19.9559H99.7985C97.0422 18.8797 94.8465 16.6837 93.7705 13.9273V10.8067C96.6556 10.8664 99.3642 11.2818 101.757 11.969ZM102.917 10.8096C104.418 11.2879 105.799 11.8731 107.027 12.5484C108.547 13.3844 109.86 14.3766 110.868 15.4945C109.102 9.41562 104.311 4.62406 98.232 2.8586C99.3499 3.86678 100.342 5.17942 101.178 6.69948C101.853 7.92723 102.439 9.30841 102.917 10.8096ZM93.7705 2.17542C96.0522 2.49652 98.2248 4.32991 99.911 7.39623C100.4 8.28567 100.842 9.26829 101.227 10.3293C98.9333 9.753 96.4142 9.41325 93.7705 9.3607V2.17542Z" fill="#486A6F"/>
</svg>
