<svg width="79" height="31" viewBox="0 0 79 31" fill="none" xmlns="http://www.w3.org/2000/svg">
<path d="M19.3248 0.678833C16.2787 0.678833 13.3574 1.88888 11.2035 4.04279L4.17402 11.0722C2.02011 13.2261 0.810059 16.1474 0.810059 19.1935C0.810059 25.5367 5.9522 30.6788 12.2954 30.6788C15.3415 30.6788 18.2628 29.4687 20.4167 27.3148L25.279 22.4525C25.279 22.4524 25.2791 22.4526 25.279 22.4525L39.4461 8.28543C40.4748 7.25674 41.87 6.67883 43.3248 6.67883C45.7604 6.67883 47.8253 8.26624 48.5412 10.4629L53.0123 5.99179C50.9726 2.79717 47.3961 0.678833 43.3248 0.678833C40.2787 0.678833 37.3574 1.88888 35.2035 4.04279L16.1741 23.0722C15.1454 24.1009 13.7502 24.6788 12.2954 24.6788C9.2659 24.6788 6.81006 22.223 6.81006 19.1935C6.81006 17.7387 7.38797 16.3435 8.41666 15.3148L15.4461 8.28543C16.4748 7.25674 17.87 6.67883 19.3248 6.67883C21.7605 6.67883 23.8253 8.26631 24.5412 10.463L29.0124 5.9919C26.9727 2.79723 23.3962 0.678833 19.3248 0.678833Z" fill="#486A6F"/>
<path d="M40.1741 23.0722C39.1454 24.1009 37.7502 24.6788 36.2954 24.6788C33.8601 24.6788 31.7954 23.0918 31.0793 20.8955L26.6083 25.3665C28.6481 28.5607 32.2244 30.6788 36.2954 30.6788C39.3415 30.6788 42.2628 29.4687 44.4167 27.3148L63.4461 8.28543C64.4748 7.25674 65.87 6.67883 67.3248 6.67883C70.3543 6.67883 72.8101 9.13467 72.8101 12.1641C72.8101 13.6189 72.2322 15.0141 71.2035 16.0428L64.1741 23.0722C63.1454 24.1009 61.7502 24.6788 60.2954 24.6788C57.8599 24.6788 55.7951 23.0915 55.0791 20.895L50.6081 25.3661C52.6478 28.5606 56.2242 30.6788 60.2954 30.6788C63.3415 30.6788 66.2628 29.4687 68.4167 27.3148L75.4461 20.2854C77.6 18.1315 78.8101 15.2102 78.8101 12.1641C78.8101 5.82097 73.668 0.678833 67.3248 0.678833C64.2787 0.678833 61.3574 1.88888 59.2035 4.04279L40.1741 23.0722Z" fill="#486A6F"/>
</svg>
