<svg width="71" height="71" viewBox="0 0 71 71" fill="none" xmlns="http://www.w3.org/2000/svg">
<rect x="0.93457" y="0.678711" width="70" height="70" rx="5" fill="#E1EBFA"/>
<g clip-path="url(#clip0_3_3941)">
<path d="M39.747 26.9287C40.968 27.1669 42.09 27.764 42.9696 28.6436C43.8492 29.5232 44.4463 30.6453 44.6845 31.8662L39.747 26.9287ZM39.747 21.9287C42.2836 22.2105 44.649 23.3464 46.4549 25.15C48.2607 26.9535 49.3996 29.3175 49.6846 31.8537L39.747 21.9287ZM48.4346 41.8287V45.5787C48.436 45.9268 48.3647 46.2714 48.2252 46.5904C48.0857 46.9094 47.8812 47.1957 47.6246 47.431C47.3681 47.6664 47.0653 47.8456 46.7355 47.9571C46.4057 48.0686 46.0563 48.11 45.7095 48.0787C41.8631 47.6608 38.1683 46.3464 34.922 44.2412C31.9018 42.322 29.3412 39.7614 27.422 36.7412C25.3095 33.4802 23.9949 29.7675 23.5845 25.9037C23.5533 25.558 23.5944 25.2097 23.7052 24.8807C23.816 24.5518 23.994 24.2496 24.228 23.9932C24.462 23.7369 24.7468 23.5321 25.0643 23.3919C25.3818 23.2516 25.725 23.179 26.072 23.1787H29.822C30.4287 23.1727 31.0168 23.3876 31.4768 23.7831C31.9367 24.1787 32.2371 24.728 32.322 25.3287C32.4803 26.5288 32.7739 27.7071 33.197 28.8412C33.3652 29.2886 33.4016 29.7749 33.3019 30.2423C33.2022 30.7098 32.9706 31.1388 32.6345 31.4787L31.047 33.0662C32.8265 36.1956 35.4176 38.7868 38.547 40.5662L40.1345 38.9787C40.4744 38.6426 40.9035 38.411 41.3709 38.3113C41.8384 38.2116 42.3246 38.248 42.772 38.4162C43.9061 38.8394 45.0845 39.1329 46.2846 39.2912C46.8918 39.3769 47.4463 39.6827 47.8427 40.1506C48.2391 40.6184 48.4498 41.2157 48.4346 41.8287Z" stroke="#486A6F" stroke-width="2" stroke-linecap="round" stroke-linejoin="round"/>
</g>
<defs>
<clipPath id="clip0_3_3941">
<rect width="30" height="30" fill="white" transform="translate(20.9346 20.6787)"/>
</clipPath>
</defs>
</svg>
