<svg width="41" height="41" viewBox="0 0 41 41" fill="none" xmlns="http://www.w3.org/2000/svg">
<rect x="0.93457" y="0.678711" width="40" height="40" rx="6" fill="#678C92"/>
<path d="M25.9346 10.6787H15.9346C13.1731 10.6787 10.9346 12.9173 10.9346 15.6787V25.6787C10.9346 28.4401 13.1731 30.6787 15.9346 30.6787H25.9346C28.696 30.6787 30.9346 28.4401 30.9346 25.6787V15.6787C30.9346 12.9173 28.696 10.6787 25.9346 10.6787Z" stroke="#F4F7FF" stroke-width="2" stroke-linecap="round" stroke-linejoin="round"/>
<path d="M24.9346 20.0488C25.058 20.881 24.9158 21.731 24.5283 22.4778C24.1408 23.2246 23.5277 23.8302 22.7762 24.2084C22.0247 24.5867 21.173 24.7184 20.3424 24.5847C19.5117 24.451 18.7443 24.0589 18.1494 23.4639C17.5545 22.869 17.1623 22.1016 17.0287 21.271C16.895 20.4403 17.0266 19.5887 17.4049 18.8371C17.7832 18.0856 18.3888 17.4725 19.1356 17.085C19.8824 16.6975 20.7323 16.5554 21.5646 16.6788C22.4135 16.8047 23.1994 17.2002 23.8063 17.8071C24.4131 18.4139 24.8087 19.1998 24.9346 20.0488Z" stroke="#F4F7FF" stroke-width="2" stroke-linecap="round" stroke-linejoin="round"/>
<path d="M26.4346 15.1787H26.4446" stroke="#F4F7FF" stroke-width="2" stroke-linecap="round" stroke-linejoin="round"/>
</svg>
