<svg width="71" height="71" viewBox="0 0 71 71" fill="none" xmlns="http://www.w3.org/2000/svg">
<rect x="0.333313" y="0.678833" width="70" height="70" rx="5" fill="#678C92"/>
<rect x="0.333313" y="0.678833" width="70" height="70" rx="5" fill="url(#paint0_linear_1_194)" fill-opacity="0.2"/>
<g clip-path="url(#clip0_1_194)">
<path d="M38.1458 30.0538V44.5521C38.1458 44.7064 38.1839 44.8584 38.2567 44.9945C38.3296 45.1305 38.4349 45.2465 38.5633 45.3321L39.8514 46.1909C39.9764 46.2742 40.1196 46.3263 40.269 46.3427C40.4183 46.3592 40.5694 46.3395 40.7095 46.2853C40.8496 46.2311 40.9747 46.1441 41.0741 46.0314C41.1736 45.9188 41.2445 45.784 41.281 45.6382L42.8333 39.4288" stroke="#F4F7FF" stroke-width="3" stroke-linecap="round" stroke-linejoin="round"/>
<path d="M42.8333 39.4288C44.0765 39.4288 45.2688 38.9349 46.1479 38.0558C47.027 37.1768 47.5208 35.9845 47.5208 34.7413C47.5208 33.4981 47.027 32.3058 46.1479 31.4267C45.2688 30.5476 44.0765 30.0538 42.8333 30.0538H38.1458C38.1458 30.0538 31.7648 30.0538 25.6242 24.9037C25.4876 24.7887 25.3211 24.7152 25.1441 24.6916C24.9672 24.6681 24.7872 24.6956 24.6254 24.7709C24.4635 24.8462 24.3265 24.9661 24.2305 25.1166C24.1345 25.267 24.0834 25.4418 24.0833 25.6203V43.8623C24.0834 44.0408 24.1345 44.2155 24.2305 44.366C24.3265 44.5165 24.4635 44.6364 24.6254 44.7117C24.7872 44.7869 24.9672 44.8144 25.1441 44.7909C25.3211 44.7674 25.4876 44.6938 25.6242 44.5789C31.7648 39.4288 38.1458 39.4288 38.1458 39.4288H42.8333Z" stroke="#F4F7FF" stroke-width="3" stroke-linecap="round" stroke-linejoin="round"/>
</g>
<defs>
<linearGradient id="paint0_linear_1_194" x1="0.333313" y1="0.678833" x2="70.3333" y2="70.6788" gradientUnits="userSpaceOnUse">
<stop stop-color="#678C92"/>
<stop offset="1" stop-color="#9ED5DE"/>
</linearGradient>
<clipPath id="clip0_1_194">
<rect width="30" height="30" fill="white" transform="translate(20.3333 20.6788)"/>
</clipPath>
</defs>
</svg>
